<svg version="1.0" xmlns="http://www.w3.org/2000/svg"
 width="2827.000000pt" height="2827.000000pt" viewBox="0 0 2827.000000 2827.000000"
 preserveAspectRatio="xMidYMid meet">

<g transform="translate(0.000000,2827.000000) scale(0.100000,-0.100000)"
 stroke="none">
<path d="M11295 26694 c-90 -21 -128 -34 -255 -87 -80 -32 -181 -78 -225 -100
-44 -22 -88 -44 -98 -49 -10 -5 -41 -21 -70 -37 -29 -15 -78 -38 -110 -49 -32
-12 -75 -31 -97 -42 -21 -11 -60 -27 -86 -36 -26 -9 -81 -32 -123 -53 -42 -20
-96 -42 -121 -50 -25 -7 -71 -26 -103 -42 -32 -17 -88 -39 -125 -51 -37 -11
-92 -33 -122 -48 -30 -15 -91 -40 -135 -55 -44 -16 -89 -34 -100 -41 -11 -7
-60 -26 -110 -42 -49 -17 -124 -46 -165 -65 -41 -19 -90 -37 -108 -40 -18 -4
-56 -17 -85 -31 -87 -40 -125 -56 -134 -56 -7 0 -254 -94 -318 -121 -11 -5
-40 -16 -65 -24 -25 -9 -88 -31 -140 -50 -52 -19 -158 -56 -236 -82 -77 -27
-156 -56 -175 -65 -18 -9 -72 -28 -119 -43 -47 -14 -94 -31 -105 -37 -11 -7
-81 -33 -155 -59 -74 -26 -155 -55 -180 -64 -25 -10 -75 -26 -113 -36 -37 -11
-84 -28 -105 -39 -20 -11 -75 -32 -122 -45 -47 -14 -112 -37 -145 -50 -33 -13
-87 -31 -120 -41 -63 -17 -97 -29 -180 -62 -27 -11 -86 -30 -130 -42 -44 -13
-111 -33 -150 -46 -38 -13 -108 -33 -155 -44 -47 -12 -132 -37 -190 -55 -128
-40 -296 -90 -480 -141 -30 -9 -64 -20 -75 -25 -11 -5 -69 -25 -129 -44 -60
-19 -130 -47 -155 -61 -43 -25 -150 -100 -161 -114 -3 -3 -25 -21 -50 -40 -25
-19 -125 -114 -223 -210 -99 -96 -184 -180 -190 -186 -7 -6 -32 -35 -57 -65
-25 -29 -92 -106 -150 -170 -143 -158 -196 -222 -258 -305 -29 -40 -63 -79
-76 -87 -13 -9 -34 -33 -47 -54 -12 -21 -57 -76 -99 -123 -42 -47 -94 -110
-115 -140 -43 -59 -181 -228 -201 -245 -6 -5 -38 -45 -70 -88 -32 -43 -78
-104 -102 -135 -23 -31 -50 -68 -60 -82 -9 -13 -39 -50 -67 -81 -27 -31 -63
-76 -80 -99 -16 -24 -49 -68 -72 -99 -24 -31 -65 -87 -93 -126 -28 -38 -66
-90 -85 -115 -39 -50 -127 -169 -195 -266 -25 -35 -97 -132 -161 -216 -63 -84
-126 -169 -140 -188 -13 -19 -31 -42 -39 -50 -8 -8 -40 -50 -70 -94 -30 -43
-75 -105 -100 -139 -25 -33 -62 -86 -83 -116 -22 -31 -42 -58 -46 -61 -4 -3
-17 -21 -29 -40 -12 -19 -33 -48 -48 -65 -14 -16 -60 -79 -101 -140 -114 -168
-186 -272 -204 -292 -8 -10 -20 -30 -26 -44 -6 -15 -24 -42 -40 -60 -28 -34
-69 -95 -134 -199 -19 -30 -47 -70 -64 -89 -16 -19 -39 -49 -50 -67 -22 -36
-108 -161 -186 -269 -27 -38 -69 -99 -93 -135 -23 -36 -50 -71 -60 -79 -10 -8
-26 -32 -37 -52 -10 -21 -76 -116 -146 -211 -148 -202 -220 -317 -229 -365
-13 -68 3 -134 56 -243 29 -58 67 -127 85 -155 62 -95 110 -168 140 -210 79
-113 104 -147 179 -240 44 -54 94 -117 111 -140 17 -22 55 -65 84 -95 29 -30
70 -79 92 -107 22 -29 43 -53 48 -53 5 0 42 -39 83 -87 97 -114 344 -364 477
-484 58 -52 125 -113 150 -136 41 -38 129 -115 302 -263 29 -24 71 -58 93 -74
23 -16 58 -43 78 -60 82 -68 139 -111 275 -209 212 -152 223 -160 267 -186 23
-13 66 -42 97 -65 31 -22 79 -54 105 -69 27 -15 83 -49 125 -75 42 -26 99 -60
125 -76 27 -16 78 -48 114 -70 36 -23 83 -50 105 -61 22 -11 51 -28 65 -38 14
-10 52 -32 85 -48 59 -28 140 -71 371 -197 118 -64 173 -80 237 -68 37 7 125
79 400 327 34 30 78 68 97 83 19 16 79 69 134 120 54 50 108 98 121 106 29 20
97 79 339 295 111 99 216 191 232 204 16 13 61 54 100 90 85 80 163 146 219
186 22 17 53 42 69 58 42 42 96 36 122 -14 13 -25 14 -388 14 -2981 0 -1624
-5 -3342 -10 -3818 -5 -476 -12 -1110 -15 -1410 -3 -300 -10 -720 -15 -935 -5
-214 -12 -786 -15 -1270 -3 -484 -10 -1044 -15 -1245 -15 -568 -14 -3111 1
-3143 22 -49 76 -76 184 -91 55 -8 118 -15 140 -14 88 1 1004 -46 1200 -62
232 -19 592 -39 795 -45 643 -18 895 -29 1335 -60 334 -23 360 -24 975 -34
1678 -28 2371 -34 3424 -28 2033 11 3212 30 3546 57 177 14 894 47 1295 60
198 6 403 15 455 20 52 5 145 12 205 15 61 3 151 10 200 15 90 9 446 30 860
50 121 6 298 21 394 33 168 21 175 23 195 50 l21 28 -5 2462 c-3 1354 -5 4663
-5 7353 0 4797 0 4892 19 4913 32 35 67 26 169 -42 99 -67 197 -139 231 -168
22 -18 45 -36 143 -104 93 -64 196 -141 223 -165 14 -12 36 -30 50 -39 14 -9
55 -38 92 -66 36 -27 98 -72 137 -100 40 -27 86 -62 104 -76 18 -14 100 -76
182 -138 83 -61 173 -129 200 -151 28 -23 70 -57 95 -77 25 -20 70 -52 100
-71 30 -19 67 -46 82 -60 27 -25 68 -52 142 -92 64 -36 130 -30 212 20 92 54
78 45 206 131 62 43 131 86 153 97 22 11 63 38 92 59 29 21 98 68 155 106 114
75 222 150 253 175 11 10 38 29 60 44 22 16 67 51 100 78 33 28 87 68 120 90
57 37 84 59 194 155 25 23 73 61 106 85 33 24 81 65 107 90 25 25 78 75 116
113 38 37 74 67 80 67 6 0 31 19 55 43 25 23 95 89 157 147 61 58 124 118 138
135 39 43 123 126 157 156 70 60 489 502 509 536 5 9 32 40 60 68 28 29 74 80
101 115 28 35 65 77 84 94 18 17 50 54 71 81 20 28 64 80 96 116 101 113 126
143 153 184 14 22 33 46 43 52 9 7 34 39 55 70 43 65 80 114 136 180 21 25 47
61 58 81 11 21 33 55 49 77 24 33 29 50 30 98 0 53 -4 63 -57 140 -31 45 -59
84 -63 87 -3 3 -28 34 -55 70 -27 36 -69 90 -94 120 -26 30 -51 61 -58 70 -6
8 -53 70 -105 138 -51 67 -110 144 -131 170 -20 26 -61 79 -91 117 -29 39 -64
79 -76 90 -12 11 -38 43 -56 70 -51 75 -82 117 -112 150 -15 17 -35 42 -44 56
-9 14 -23 32 -30 40 -8 8 -33 39 -56 69 -23 30 -58 75 -78 100 -19 25 -74 96
-122 158 -48 62 -121 152 -162 200 -41 48 -100 120 -130 161 -63 86 -100 132
-170 216 -27 33 -68 84 -91 114 -23 29 -58 70 -78 90 -20 20 -62 70 -94 111
-32 41 -82 107 -113 145 -30 39 -68 87 -84 109 -29 37 -88 108 -161 190 -19
23 -46 57 -59 76 -13 19 -38 49 -54 66 -17 17 -74 81 -126 144 -52 62 -111
131 -130 154 -20 22 -53 63 -75 90 -40 48 -59 72 -143 177 -49 61 -82 99 -217
252 -53 59 -106 125 -120 145 -13 21 -34 44 -46 52 -12 8 -39 38 -61 65 -22
28 -84 97 -137 154 -53 57 -106 117 -118 134 -12 16 -37 44 -55 61 -41 39
-190 196 -323 340 -147 158 -522 535 -580 581 -27 22 -61 50 -74 62 -87 78
-163 139 -211 168 -87 54 -285 152 -322 160 -18 4 -98 29 -178 55 -80 26 -172
55 -205 64 -33 10 -94 30 -135 46 -41 15 -118 41 -170 56 -52 15 -105 33 -117
40 -11 7 -68 27 -125 44 -56 17 -119 38 -138 47 -19 9 -84 34 -145 56 -60 21
-159 56 -219 77 -60 22 -123 46 -140 54 -17 8 -80 31 -141 51 -60 21 -123 44
-138 52 -16 8 -56 23 -90 34 -34 11 -78 27 -97 36 -37 17 -105 44 -180 70 -25
8 -70 26 -100 40 -84 38 -149 63 -166 63 -8 0 -53 18 -100 40 -47 22 -91 40
-99 40 -7 0 -48 16 -91 36 -42 19 -104 46 -138 58 -33 13 -86 35 -116 49 -30
14 -77 32 -105 41 -27 9 -59 20 -70 25 -11 5 -51 24 -90 41 -38 17 -79 36 -90
40 -11 5 -54 24 -95 44 -103 48 -250 112 -340 148 -41 16 -90 38 -110 48 -19
10 -66 31 -105 45 -38 15 -88 38 -110 51 -23 13 -59 30 -82 38 -37 13 -189 84
-303 141 -25 13 -114 55 -198 94 -85 40 -171 83 -193 97 -58 36 -277 123 -345
135 -69 13 -292 5 -344 -12 -19 -6 -71 -25 -115 -40 -44 -16 -111 -37 -150
-48 -38 -10 -105 -33 -147 -50 -42 -17 -92 -34 -110 -37 -18 -3 -85 -22 -148
-42 -63 -19 -160 -45 -215 -57 -55 -13 -143 -34 -195 -47 -52 -14 -129 -31
-170 -38 -41 -6 -109 -18 -150 -25 -85 -15 -221 -38 -325 -55 -215 -35 -983
-50 -1372 -26 -271 16 -298 19 -543 66 -80 15 -179 33 -220 40 -41 6 -95 17
-120 24 -99 28 -169 46 -255 66 -160 38 -170 40 -190 49 -11 5 -49 16 -85 26
-92 24 -253 76 -265 85 -5 4 -47 17 -92 29 -45 12 -106 33 -135 46 -107 49
-331 94 -393 79z m165 -98 c36 -8 86 -26 112 -40 26 -14 92 -36 146 -50 54
-13 125 -36 158 -51 32 -15 97 -36 144 -45 47 -10 110 -30 140 -44 30 -14 112
-36 183 -50 70 -14 144 -34 165 -44 37 -19 112 -36 212 -47 77 -9 199 -33 308
-61 52 -13 150 -28 225 -33 72 -6 200 -15 282 -21 83 -6 173 -13 200 -16 105
-11 607 -8 760 3 88 7 261 20 385 28 186 13 249 22 365 50 77 19 187 39 245
45 119 13 169 24 222 51 20 10 100 30 177 43 78 13 158 33 179 43 51 27 157
60 214 67 27 3 71 17 100 32 28 14 94 37 147 50 52 13 122 38 155 56 51 27 75
33 144 36 88 5 181 -9 234 -34 127 -61 173 -90 176 -112 4 -30 -36 -88 -89
-127 -22 -16 -55 -42 -73 -58 -19 -15 -51 -34 -72 -43 -21 -9 -63 -33 -92 -55
-30 -21 -77 -46 -105 -55 -29 -10 -73 -32 -98 -49 -26 -18 -77 -40 -114 -49
-36 -9 -83 -27 -103 -41 -20 -13 -75 -33 -122 -44 -47 -12 -112 -35 -145 -51
-41 -20 -97 -36 -177 -50 -82 -14 -129 -27 -155 -44 -31 -19 -65 -27 -178 -40
-289 -34 -315 -38 -362 -56 -100 -38 -443 -58 -1089 -66 -534 -6 -902 3 -1219
30 -167 15 -193 19 -305 51 -30 8 -122 22 -204 31 -171 17 -213 25 -276 53
-25 11 -88 27 -141 35 -53 9 -129 29 -170 46 -41 17 -105 37 -144 46 -38 8
-103 31 -144 50 -41 20 -104 45 -140 56 -36 11 -93 34 -126 52 -33 18 -78 39
-100 46 -22 7 -53 23 -70 35 -40 30 -110 65 -130 65 -8 0 -32 15 -52 33 -21
19 -59 48 -85 66 -52 34 -56 47 -37 111 13 44 34 58 114 77 33 7 86 30 118 49
85 52 187 65 307 40z m6120 -276 c47 -18 95 -41 106 -52 12 -10 55 -31 95 -45
41 -13 85 -36 99 -49 14 -13 59 -34 100 -46 41 -12 89 -33 106 -48 16 -14 61
-36 99 -49 38 -13 96 -38 129 -56 34 -19 81 -39 106 -45 25 -6 72 -27 105 -45
33 -18 80 -38 105 -45 25 -6 70 -25 100 -42 30 -17 86 -41 124 -54 39 -14 82
-36 97 -50 21 -20 43 -28 94 -34 51 -6 78 -16 111 -40 24 -17 76 -42 115 -55
40 -14 91 -36 115 -50 24 -14 81 -36 128 -50 46 -13 113 -40 148 -59 34 -19
88 -39 118 -45 30 -7 72 -23 92 -38 21 -14 72 -35 115 -47 43 -13 95 -34 115
-48 20 -14 76 -35 125 -47 48 -12 111 -36 139 -52 28 -16 85 -36 125 -45 77
-17 118 -34 157 -65 12 -9 54 -23 93 -29 39 -7 94 -24 123 -39 28 -15 91 -40
140 -55 50 -15 110 -39 135 -52 26 -13 89 -33 141 -45 52 -11 112 -32 133 -45
20 -14 84 -36 142 -50 58 -14 133 -38 168 -54 35 -17 102 -38 151 -49 49 -10
100 -28 117 -40 16 -12 53 -26 81 -31 29 -6 94 -20 143 -32 83 -20 94 -25 147
-76 38 -36 60 -65 63 -86 l6 -31 84 3 c83 3 84 3 122 -31 21 -18 52 -42 68
-51 17 -10 38 -31 47 -47 10 -16 25 -32 35 -36 10 -3 39 -26 64 -52 25 -25 59
-58 75 -72 16 -15 34 -32 39 -38 25 -28 137 -121 145 -121 5 0 17 -15 26 -32
16 -31 45 -62 274 -296 53 -53 103 -109 113 -124 9 -14 26 -29 37 -33 11 -4
29 -24 40 -46 11 -21 34 -46 50 -54 16 -8 36 -28 44 -43 8 -15 49 -63 91 -107
43 -44 90 -98 105 -120 15 -22 68 -82 116 -133 49 -51 112 -119 139 -153 58
-70 86 -99 95 -99 4 0 19 -22 34 -49 15 -28 35 -52 45 -56 17 -5 66 -59 123
-135 14 -20 41 -52 59 -72 19 -19 63 -73 99 -118 36 -45 80 -99 98 -119 19
-20 40 -48 48 -63 7 -14 26 -36 41 -48 15 -11 36 -36 47 -54 20 -33 36 -50
142 -159 29 -28 62 -71 73 -95 12 -23 31 -48 42 -55 11 -6 29 -28 39 -47 10
-19 33 -52 51 -72 19 -21 54 -62 79 -93 25 -30 61 -74 81 -98 20 -23 50 -63
67 -88 17 -25 47 -58 66 -73 20 -15 43 -41 53 -59 16 -32 119 -157 208 -252
26 -27 53 -65 61 -84 8 -18 34 -53 59 -78 25 -24 45 -48 45 -53 0 -5 18 -27
40 -49 22 -22 40 -46 40 -54 0 -8 21 -38 48 -66 112 -121 132 -144 132 -154 0
-5 24 -36 53 -66 28 -31 75 -90 102 -131 28 -40 66 -90 86 -109 20 -20 44 -50
53 -68 9 -18 31 -43 49 -57 19 -15 42 -47 55 -78 15 -35 32 -59 52 -70 17 -9
35 -29 41 -44 5 -16 28 -47 49 -71 22 -23 40 -46 40 -51 0 -5 19 -30 43 -55
68 -75 112 -129 137 -172 13 -22 40 -59 61 -82 42 -49 48 -75 40 -157 -6 -57
-8 -60 -38 -68 -36 -9 -44 -18 -52 -61 -4 -20 -17 -37 -36 -47 -19 -11 -33
-29 -40 -53 -7 -23 -30 -55 -68 -89 -58 -55 -73 -92 -41 -105 25 -9 64 14 64
39 0 46 12 66 39 71 20 4 32 17 46 47 10 23 36 55 57 71 21 17 47 52 60 81
l23 50 56 -6 c77 -8 85 -12 117 -65 16 -26 36 -53 43 -61 61 -64 69 -81 69
-143 -1 -97 -14 -138 -55 -171 -20 -16 -45 -46 -56 -67 -10 -21 -32 -48 -48
-60 -17 -12 -35 -35 -41 -50 -7 -16 -27 -40 -45 -54 -20 -15 -36 -37 -40 -57
-5 -20 -31 -59 -68 -98 -33 -36 -78 -86 -101 -112 -23 -26 -62 -70 -88 -96
-27 -27 -48 -54 -48 -59 0 -9 -37 -52 -119 -138 -26 -27 -67 -75 -91 -105 -24
-30 -66 -78 -94 -106 -82 -82 -234 -246 -258 -280 -20 -27 -42 -51 -130 -141
-10 -10 -51 -51 -93 -91 -41 -40 -75 -77 -75 -83 0 -5 -15 -18 -32 -29 -34
-20 -270 -241 -389 -362 -36 -38 -71 -68 -78 -68 -7 0 -50 -36 -96 -80 -46
-44 -89 -80 -96 -80 -7 0 -35 -21 -62 -48 -105 -102 -126 -121 -163 -145 -22
-13 -79 -57 -129 -97 -49 -39 -106 -80 -126 -90 -20 -10 -43 -30 -53 -44 -9
-14 -34 -35 -56 -46 -22 -11 -49 -33 -61 -49 -12 -16 -48 -41 -80 -56 -32 -14
-63 -34 -69 -44 -5 -10 -29 -26 -52 -36 -24 -9 -59 -32 -78 -50 -19 -19 -56
-43 -82 -55 -25 -11 -65 -36 -88 -55 -23 -19 -48 -35 -55 -35 -7 0 -30 -14
-51 -31 -22 -18 -67 -45 -101 -60 -35 -16 -70 -41 -83 -59 -29 -41 -111 -65
-189 -55 -44 6 -66 15 -106 47 -27 21 -72 52 -98 69 -26 16 -50 36 -54 45 -9
24 28 134 51 150 11 8 30 14 41 14 27 0 45 18 45 46 0 33 -12 36 -56 14 -21
-11 -44 -20 -51 -20 -7 0 -19 -13 -27 -29 -19 -36 -32 -41 -117 -41 -68 0
-129 19 -129 39 0 5 -31 30 -68 55 -37 24 -77 54 -87 66 -11 12 -38 31 -60 42
-22 12 -53 32 -70 45 -87 70 -142 111 -184 138 -48 30 -88 61 -164 126 -23 20
-60 46 -82 57 -22 11 -65 41 -95 66 -30 26 -74 62 -96 81 -23 19 -55 40 -70
46 -16 7 -42 26 -59 41 -16 16 -52 45 -80 63 -27 19 -80 54 -116 79 -36 25
-72 52 -79 61 -7 9 -27 23 -43 32 -16 8 -49 33 -73 55 -24 22 -63 50 -86 63
-72 38 -82 70 -86 275 -3 186 3 222 67 401 12 34 23 97 27 164 7 100 9 109 34
132 39 34 51 91 48 213 -3 97 -4 105 -23 105 -30 0 -44 -42 -58 -172 -10 -96
-15 -118 -29 -121 -26 -5 -46 46 -64 165 -19 126 -26 146 -43 114 -17 -31 -30
-207 -39 -541 -6 -191 -13 -303 -20 -317 -7 -12 -28 -27 -47 -33 -29 -10 -35
-16 -35 -40 0 -57 22 -130 51 -170 46 -63 70 -183 75 -380 5 -201 11 -1428 24
-4555 5 -1303 11 -2624 14 -2935 3 -311 8 -1902 12 -3536 l7 -2972 -22 -31
c-18 -25 -32 -32 -74 -38 -29 -4 -59 -6 -67 -4 -7 1 -38 0 -68 -4 -44 -5 -51
-9 -41 -21 8 -10 35 -14 93 -14 92 0 139 -20 157 -67 21 -55 29 -189 22 -337
-11 -200 11 -185 -300 -202 -131 -8 -290 -21 -353 -30 -163 -24 -236 -28
-1125 -64 -242 -10 -411 -21 -730 -50 -102 -9 -201 -13 -1545 -56 -426 -13
-849 -29 -940 -34 -742 -42 -4379 -41 -5040 1 -298 19 -897 40 -1715 59 -465
11 -634 21 -1090 59 -66 6 -318 17 -560 26 -553 18 -800 32 -893 51 -83 16
-259 30 -502 40 -181 7 -215 17 -227 62 -4 15 -8 115 -8 223 l0 196 36 69 c28
53 41 68 55 65 56 -11 133 -11 159 -1 l30 12 -25 10 c-14 5 -60 8 -103 5 -71
-5 -82 -3 -104 16 -50 43 -53 64 -48 349 3 144 9 1687 15 3428 15 4672 24
6663 35 7815 4 325 10 1015 15 1535 l8 945 32 140 c20 87 44 163 64 200 27 52
31 72 34 152 4 87 3 93 -21 117 -15 15 -32 23 -41 20 -8 -3 -23 -1 -35 5 -31
17 -51 -10 -51 -69 0 -46 -39 -152 -61 -166 -5 -3 -21 -28 -35 -55 -15 -32
-37 -57 -57 -67 -17 -9 -64 -49 -104 -89 -40 -40 -86 -79 -102 -87 -16 -9 -40
-29 -53 -45 -12 -16 -51 -50 -85 -75 -35 -25 -63 -50 -63 -56 0 -5 -26 -27
-58 -48 -31 -22 -86 -68 -122 -104 -36 -35 -73 -69 -83 -74 -17 -10 -82 -66
-162 -139 -23 -22 -65 -59 -91 -82 -27 -23 -95 -83 -151 -132 -56 -50 -121
-102 -144 -117 -24 -15 -57 -41 -75 -58 -17 -17 -54 -50 -82 -73 -49 -42 -51
-43 -126 -43 -67 0 -76 2 -76 18 0 41 -135 72 -147 35 -6 -17 50 -49 97 -57
21 -3 40 -12 43 -19 5 -13 -10 -124 -19 -138 -3 -5 -26 -23 -52 -40 -26 -18
-64 -49 -84 -70 -45 -46 -80 -54 -168 -40 -49 8 -79 20 -120 49 -30 22 -85 49
-122 61 -36 12 -72 29 -80 38 -7 9 -53 35 -103 59 -100 49 -204 107 -252 142
-18 12 -56 34 -85 47 -29 14 -74 40 -100 57 -64 45 -131 87 -193 123 -29 17
-61 37 -71 46 -11 9 -39 27 -62 39 -24 12 -63 39 -85 60 -23 21 -59 45 -79 53
-20 9 -47 28 -60 42 -13 15 -39 35 -58 45 -19 10 -61 39 -94 64 -32 25 -63 46
-68 46 -5 0 -21 14 -35 30 -14 17 -42 38 -62 46 -20 8 -52 30 -71 48 -19 18
-51 43 -70 56 -47 32 -113 86 -163 136 -23 23 -53 47 -67 54 -14 7 -41 27 -60
46 -41 39 -110 104 -246 229 -126 117 -444 435 -444 444 0 4 -11 13 -25 19
-13 6 -32 26 -41 44 -9 18 -35 52 -58 75 -23 23 -60 63 -84 90 -23 26 -56 63
-72 81 -17 19 -43 53 -59 75 -16 23 -39 51 -51 62 -13 11 -42 50 -66 88 -24
37 -48 67 -52 67 -5 0 -21 21 -35 48 -14 26 -35 53 -47 60 -12 7 -33 39 -47
70 -13 31 -37 71 -52 87 -15 17 -39 51 -54 76 -14 25 -33 51 -41 58 -9 7 -26
36 -39 64 -13 29 -36 70 -51 92 -24 34 -27 48 -24 93 3 34 12 62 26 80 12 15
33 47 46 72 39 70 137 170 168 170 21 0 27 -6 32 -34 7 -38 22 -54 63 -65 21
-6 29 -15 34 -41 8 -38 40 -70 70 -70 13 0 19 -7 19 -22 0 -25 45 -88 63 -88
7 0 26 -25 42 -55 18 -32 43 -64 62 -75 18 -10 41 -37 53 -59 17 -34 25 -41
50 -41 30 0 33 -5 42 -64 2 -10 11 -23 21 -27 9 -5 25 -13 34 -17 10 -5 21
-24 24 -42 10 -49 45 -71 79 -50 22 14 -11 76 -55 101 -19 12 -35 24 -35 28 0
5 -25 34 -56 66 -31 33 -58 71 -61 88 -4 19 -17 36 -38 48 -18 11 -40 37 -50
60 -13 28 -29 45 -52 54 -21 9 -33 21 -33 33 0 29 -33 64 -60 66 -19 1 -26 8
-31 33 -8 39 -25 62 -56 74 -12 4 -29 24 -37 44 -8 19 -29 43 -45 53 -35 20
-40 35 -33 98 5 52 38 107 155 262 34 45 74 105 89 133 15 28 45 71 68 95 22
24 40 50 40 58 0 9 20 40 45 70 24 30 51 70 58 88 8 18 29 48 46 67 17 19 31
40 31 47 0 7 23 37 50 67 28 30 57 72 66 92 8 21 30 52 47 69 30 30 49 57 123
180 17 28 45 65 61 81 17 17 38 46 48 65 10 19 28 42 40 51 12 10 36 44 53 77
18 33 39 66 49 73 9 8 31 37 48 64 18 28 43 59 55 70 12 11 30 36 40 56 10 19
26 41 35 49 8 7 31 41 50 75 19 33 46 72 61 86 14 13 35 41 45 62 11 21 26 40
34 43 8 3 32 35 54 70 22 35 44 64 49 64 5 0 23 26 40 58 17 31 45 71 62 87
18 17 43 50 56 75 24 43 41 67 139 191 25 31 45 61 45 67 0 5 15 23 34 40 19
17 44 48 54 69 11 21 30 47 42 58 12 11 34 40 48 65 14 25 44 66 66 91 72 83
112 133 126 159 7 14 27 41 45 60 18 19 36 45 39 57 4 12 24 37 45 55 20 19
48 52 61 74 25 41 82 112 139 173 19 20 40 50 47 68 8 17 27 42 43 55 16 12
38 41 49 63 18 36 41 63 163 192 21 22 39 48 39 57 0 9 21 38 48 64 26 26 67
76 91 110 24 34 61 76 83 93 21 17 47 48 58 69 10 21 32 48 48 62 16 13 42 42
59 64 35 47 73 90 134 152 25 26 50 54 55 63 5 8 24 26 43 38 18 13 39 38 46
55 7 17 64 78 125 136 62 58 123 116 137 130 13 14 34 34 46 45 11 11 37 37
57 58 33 36 136 97 164 97 19 0 43 -31 49 -65 4 -16 9 -75 12 -130 10 -171 24
-230 48 -206 8 8 13 83 14 241 1 187 5 234 18 259 8 17 17 31 18 31 30 0 164
37 199 55 28 15 96 33 165 46 87 15 134 30 182 55 35 19 76 34 91 34 57 0 187
33 235 60 28 15 93 37 149 49 60 12 114 30 135 45 24 16 79 33 160 50 74 16
140 36 166 51 23 14 78 32 121 41 44 8 111 30 149 48 39 18 95 39 125 45 30 7
91 28 135 47 44 18 117 42 162 53 46 11 95 29 110 40 16 12 77 32 137 46 73
17 128 37 165 60 32 19 87 40 130 50 41 9 93 27 115 40 23 13 73 31 111 40 39
9 93 29 122 45 28 16 87 38 132 50 103 26 131 37 156 60 11 11 61 28 110 40
53 12 102 31 121 45 17 13 67 34 110 45 42 12 89 29 103 40 15 10 70 32 124
50 53 17 116 42 139 55 24 13 79 33 123 45 44 12 101 35 127 51 26 15 81 37
122 48 44 11 88 30 105 44 17 14 54 30 82 36 28 6 85 27 126 47 42 19 103 44
137 54 33 11 81 32 106 47 25 16 78 39 119 52 40 13 110 41 154 62 122 59 212
54 277 -16 14 -15 43 -36 65 -47 22 -12 53 -32 69 -45 16 -13 52 -36 80 -50
28 -14 65 -37 83 -50 18 -14 54 -31 80 -39 26 -8 66 -27 88 -43 22 -16 69 -38
104 -50 35 -11 84 -34 109 -51 50 -33 51 -34 159 -50 40 -7 83 -20 95 -29 46
-36 89 -51 186 -66 55 -8 133 -28 173 -44 52 -21 120 -36 226 -50 83 -12 186
-32 229 -46 75 -24 166 -35 524 -65 74 -6 162 -18 195 -25 113 -27 410 -38
900 -31 258 3 497 10 530 15 79 14 277 35 564 61 195 18 250 26 325 51 55 18
123 32 171 35 102 7 202 28 274 59 32 13 97 31 147 40 49 9 116 29 149 45 33
16 103 41 155 56 52 15 112 38 133 51 21 13 68 34 105 47 37 12 85 35 106 49
21 15 45 27 52 27 7 0 42 20 78 45 36 24 82 52 103 60 21 9 49 26 63 39 14 13
48 36 75 52 28 15 70 48 95 74 32 32 58 49 90 57 59 14 79 11 180 -27z"/>
<path d="M22406 24131 c-28 -45 -40 -689 -14 -751 l15 -35 11 55 c29 142 39
594 16 713 -6 27 -18 35 -28 18z"/>
<path d="M5295 23654 c-13 -32 -18 -315 -7 -387 11 -72 28 -105 45 -88 15 15
20 217 8 327 -12 112 -33 179 -46 148z"/>
<path d="M22311 23092 c-29 -55 -41 -560 -14 -607 11 -19 12 -19 22 8 19 49
31 196 31 378 0 222 -10 276 -39 221z"/>
<path d="M5383 23023 c-12 -42 -5 -363 8 -395 11 -27 35 -43 43 -30 21 37 8
354 -18 417 -18 42 -23 43 -33 8z"/>
<path d="M5085 22509 c-11 -33 5 -137 24 -161 12 -14 24 -19 36 -14 16 6 17
15 11 78 -7 74 -26 118 -51 118 -7 0 -17 -9 -20 -21z"/>
<path d="M5481 22427 c-14 -35 -14 -227 -1 -262 12 -31 39 -43 51 -24 12 19
11 168 -2 227 -5 28 -16 58 -24 68 -13 18 -14 17 -24 -9z"/>
<path d="M22221 22317 c-20 -25 -31 -126 -31 -303 -1 -225 10 -269 44 -183 13
33 17 83 19 253 2 215 -5 265 -32 233z"/>
<path d="M5186 22291 c-4 -5 -2 -40 3 -77 10 -69 29 -102 51 -89 16 10 7 140
-11 161 -13 16 -35 18 -43 5z"/>
<path d="M5285 22050 c-10 -44 4 -148 22 -166 12 -12 18 -12 30 -2 11 9 14 27
11 73 -6 96 -49 160 -63 95z"/>
<path d="M5581 22006 c-16 -19 -26 -165 -17 -227 4 -24 14 -53 22 -64 l15 -20
16 20 c12 16 14 41 10 136 -5 127 -22 184 -46 155z"/>
<path d="M5374 21795 c-16 -64 20 -175 56 -175 18 0 20 7 19 53 -1 82 -20 141
-46 145 -17 3 -24 -3 -29 -23z"/>
<path d="M22114 21613 c-15 -39 -19 -75 -19 -193 0 -151 7 -204 28 -197 22 7
38 136 35 279 -3 158 -15 187 -44 111z"/>
<path d="M5461 21558 c2 -112 32 -180 73 -165 13 5 16 21 16 82 0 99 -18 135
-67 135 -21 0 -23 -4 -22 -52z"/>
<path d="M5674 21582 c-9 -5 -44 -141 -44 -168 0 -3 -16 -20 -35 -40 -29 -29
-35 -42 -35 -79 0 -67 19 -143 44 -173 36 -42 44 -63 54 -140 6 -40 24 -102
41 -139 17 -38 38 -98 46 -136 9 -37 31 -95 49 -130 22 -39 40 -92 49 -143 9
-47 28 -106 46 -139 17 -32 31 -67 31 -77 0 -40 42 -184 65 -224 13 -23 33
-83 45 -135 11 -52 33 -121 49 -154 20 -41 35 -94 46 -165 19 -120 32 -154 61
-158 19 -3 22 3 27 60 9 88 -21 258 -55 318 -20 34 -31 74 -43 165 -12 89 -25
139 -50 195 -19 43 -40 115 -49 170 -20 117 -35 177 -53 212 -7 15 -25 85 -39
155 -14 70 -32 142 -40 158 -30 58 -45 111 -54 189 -12 99 -34 175 -58 202
-35 37 -42 62 -42 154 0 86 -24 230 -38 230 -4 0 -12 -4 -18 -8z"/>
<path d="M22021 21058 c-26 -80 -35 -378 -12 -393 15 -8 33 14 41 51 11 44 13
316 4 352 -9 31 -21 27 -33 -10z"/>
<path d="M21930 20575 c-27 -69 -40 -254 -24 -334 8 -40 34 -38 47 4 14 45 14
316 0 340 -11 19 -12 19 -23 -10z"/>
<path d="M21830 20100 c-17 -32 -32 -198 -23 -265 6 -42 13 -61 24 -63 23 -4
40 63 46 178 7 132 -16 207 -47 150z"/>
<path d="M6999 19758 c-12 -23 -6 -615 7 -678 8 -35 8 -35 21 25 15 67 30 568
19 627 -8 43 -31 56 -47 26z"/>
<path d="M21726 19589 c-16 -52 -22 -231 -10 -263 11 -28 33 -17 44 22 6 20
13 78 17 127 9 146 -22 214 -51 114z"/>
<path d="M22124 19582 c-32 -21 -47 -129 -24 -172 25 -46 60 19 60 111 0 47
-16 74 -36 61z"/>
<path d="M6223 19344 c-9 -24 6 -236 20 -285 16 -54 42 -63 51 -18 15 78 1
245 -26 297 -13 26 -36 29 -45 6z"/>
<path d="M22021 19308 c-16 -25 -27 -171 -17 -212 22 -88 79 101 58 193 -9 42
-23 48 -41 19z"/>
<path d="M21652 19218 c-20 -25 -30 -94 -33 -213 -3 -158 -2 -172 16 -179 26
-10 38 34 47 179 12 185 2 252 -30 213z"/>
<path d="M21920 18978 c-8 -14 -16 -59 -18 -113 -3 -74 -1 -93 11 -104 22 -18
33 -8 46 43 19 78 10 196 -16 196 -5 0 -15 -10 -23 -22z"/>
<path d="M6336 18882 c-13 -22 -17 -147 -7 -232 17 -137 22 -160 36 -160 18 0
25 48 25 179 0 146 -28 255 -54 213z"/>
<path d="M21558 18677 c-22 -23 -38 -126 -37 -243 1 -105 20 -196 33 -159 4
11 13 31 19 45 14 32 22 294 10 339 -8 31 -10 33 -25 18z"/>
<path d="M6921 18654 c-27 -59 -35 -348 -14 -488 5 -40 6 -40 18 -15 37 71 50
529 15 529 -4 0 -12 -12 -19 -26z"/>
<path d="M21827 18644 c-12 -24 -17 -61 -17 -119 0 -77 2 -85 19 -85 24 0 41
64 41 153 0 82 -18 103 -43 51z"/>
<path d="M26650 18600 c-26 -26 -22 -54 8 -58 30 -4 64 26 60 52 -4 29 -42 32
-68 6z"/>
<path d="M26569 18511 c-35 -36 -37 -74 -3 -79 28 -4 66 43 62 77 -4 36 -24
37 -59 2z"/>
<path d="M26488 18419 c-12 -7 -18 -22 -18 -49 0 -48 19 -53 50 -13 36 46 13
89 -32 62z"/>
<path d="M21734 18338 c-25 -48 -27 -251 -2 -256 30 -6 42 37 42 162 1 129 -9
153 -40 94z"/>
<path d="M6429 18288 c-14 -55 -6 -484 12 -588 l12 -75 14 34 c20 48 27 272
14 438 -14 179 -22 233 -32 233 -5 0 -13 -19 -20 -42z"/>
<path d="M26386 18304 c-9 -8 -16 -27 -16 -41 0 -16 -12 -36 -35 -56 -19 -17
-35 -36 -35 -43 0 -7 -22 -23 -49 -36 -39 -17 -53 -30 -64 -60 -9 -21 -29 -45
-46 -56 -17 -10 -62 -54 -99 -98 -38 -43 -86 -92 -105 -107 -20 -16 -46 -45
-58 -64 -18 -29 -19 -37 -8 -44 34 -21 89 7 89 45 0 27 14 41 51 49 18 5 29
16 35 38 9 32 16 38 66 58 22 8 29 19 34 51 6 34 12 43 39 54 21 9 36 25 43
45 7 20 22 35 46 45 25 10 37 23 42 43 9 38 29 60 62 66 20 4 33 18 51 56 12
27 20 54 16 60 -9 16 -41 13 -59 -5z"/>
<path d="M1670 18120 c0 -33 36 -65 64 -54 23 9 20 37 -7 62 -34 32 -57 29
-57 -8z"/>
<path d="M20960 18051 c-14 -28 -13 -58 6 -97 10 -21 24 -34 35 -34 16 0 19 8
19 56 0 60 -13 94 -35 94 -8 0 -19 -9 -25 -19z"/>
<path d="M1760 18025 c0 -28 5 -38 24 -47 54 -24 77 24 30 61 -39 31 -54 27
-54 -14z"/>
<path d="M6824 17985 c-13 -31 -17 -73 -18 -192 -1 -83 2 -155 7 -159 32 -32
64 140 52 281 -8 105 -19 123 -41 70z"/>
<path d="M1862 17951 c-22 -14 -10 -54 21 -69 15 -7 32 -10 37 -7 18 11 11 53
-12 69 -26 18 -28 19 -46 7z"/>
<path d="M1947 17846 c-3 -7 0 -24 7 -37 16 -33 70 -34 74 -2 5 37 -68 73 -81
39z"/>
<path d="M21049 17838 c-4 -118 16 -215 43 -206 17 6 23 141 8 191 -13 43 -49
54 -51 15z"/>
<path d="M2040 17742 c0 -28 35 -72 58 -72 6 0 16 10 23 21 15 28 -17 73 -54
77 -24 3 -27 0 -27 -26z"/>
<path d="M25783 17644 c-23 -19 -58 -57 -78 -84 -20 -28 -44 -50 -52 -50 -19
0 -83 -63 -83 -82 0 -7 -14 -22 -30 -31 -17 -10 -72 -61 -123 -112 -53 -54
-107 -100 -126 -106 -24 -9 -37 -22 -51 -54 -14 -32 -25 -44 -51 -51 -25 -7
-39 -20 -52 -47 -9 -20 -23 -37 -31 -37 -19 0 -44 -31 -48 -60 -3 -22 -9 -25
-46 -28 -32 -2 -46 -9 -59 -28 -8 -13 -13 -27 -9 -31 12 -12 -17 -33 -45 -33
-35 0 -59 -24 -59 -59 0 -25 -4 -29 -39 -35 -43 -7 -64 -26 -59 -53 5 -27 46
-28 74 -2 13 12 24 27 24 33 0 6 20 21 44 34 24 13 49 34 56 48 7 13 37 40 66
60 31 22 57 48 63 65 8 23 19 31 56 40 39 10 50 18 61 45 8 19 31 45 53 59 22
13 42 33 45 43 4 11 24 27 46 37 33 15 40 23 45 56 6 32 11 39 30 39 39 0 70
19 82 50 7 18 24 34 47 44 25 10 37 23 42 43 8 32 20 43 50 43 26 0 54 30 54
57 0 36 11 53 35 53 27 0 52 26 57 60 2 19 10 26 30 28 33 4 58 35 51 63 -7
27 -22 24 -70 -17z"/>
<path d="M2140 17637 c0 -32 33 -61 59 -52 25 8 26 23 5 53 -21 31 -64 30 -64
-1z"/>
<path d="M2237 17573 c-26 -25 13 -83 55 -83 28 0 23 45 -8 69 -28 22 -37 25
-47 14z"/>
<path d="M21144 17554 c-13 -51 20 -194 44 -194 6 0 13 16 16 35 18 95 -38
246 -60 159z"/>
<path d="M6729 17523 c-17 -44 -33 -194 -25 -235 5 -27 12 -38 24 -38 28 0 46
64 43 155 -3 137 -18 179 -42 118z"/>
<path d="M2316 17464 c-12 -32 29 -74 73 -74 16 0 21 6 21 28 0 16 -8 36 -18
45 -23 21 -68 22 -76 1z"/>
<path d="M2423 17363 c-10 -25 42 -66 68 -53 25 14 24 35 -3 54 -29 21 -57 20
-65 -1z"/>
<path d="M21239 17293 c-14 -37 5 -143 28 -160 38 -29 45 -17 42 66 -3 60 -9
84 -23 100 -25 28 -34 27 -47 -6z"/>
<path d="M2527 17289 c-28 -16 -20 -44 18 -65 31 -17 36 -17 50 -3 20 20 12
41 -23 61 -19 12 -32 14 -45 7z"/>
<path d="M2630 17166 c0 -28 35 -45 53 -27 7 7 5 16 -8 31 -25 27 -45 25 -45
-4z"/>
<path d="M2717 17103 c-13 -12 -7 -50 11 -66 9 -8 31 -17 47 -19 24 -2 31 -8
33 -30 2 -15 13 -35 25 -43 25 -17 73 -20 82 -4 10 15 -148 169 -172 169 -11
0 -23 -3 -26 -7z"/>
<path d="M2932 16888 c2 -15 21 -31 61 -52 31 -16 57 -35 57 -42 0 -6 19 -28
43 -48 23 -20 56 -49 72 -66 37 -37 93 -56 102 -34 11 29 -14 63 -51 69 -29 6
-37 13 -46 41 -13 39 -35 54 -78 54 -25 0 -30 5 -41 39 -10 37 -15 40 -62 50
-64 14 -61 15 -57 -11z"/>
<path d="M3277 16616 c-9 -23 21 -55 57 -62 72 -13 77 24 9 59 -39 21 -59 21
-66 3z"/>
<path d="M24627 16582 c-23 -21 -58 -49 -77 -62 -19 -14 -49 -39 -66 -57 -17
-18 -40 -33 -50 -33 -34 0 -64 -29 -64 -61 0 -26 -3 -29 -34 -29 -25 0 -40 -7
-55 -26 -30 -39 -27 -54 12 -54 34 0 67 26 80 63 4 9 12 17 20 17 7 0 37 11
65 25 39 19 55 34 66 60 11 26 21 35 38 35 31 0 68 27 68 49 0 21 19 41 40 41
21 1 60 35 60 54 0 31 -57 19 -103 -22z"/>
<path d="M3396 16532 c-19 -18 -3 -45 40 -63 28 -13 53 -33 62 -50 11 -20 39
-40 80 -60 34 -16 62 -36 62 -44 0 -21 50 -55 82 -55 27 0 78 -40 78 -61 0 -5
7 -9 15 -9 8 0 39 -24 69 -54 35 -36 68 -59 96 -67 26 -8 45 -21 50 -34 11
-29 28 -41 77 -54 27 -8 49 -22 63 -41 43 -60 141 -82 148 -33 3 24 -30 45
-89 57 -16 4 -35 19 -46 38 -14 24 -35 39 -73 53 -35 13 -59 29 -69 47 -9 16
-36 36 -61 47 -25 11 -55 33 -67 49 -13 17 -35 32 -54 36 -37 7 -69 32 -69 53
0 16 -94 63 -127 63 -17 0 -23 6 -23 23 0 30 -25 53 -68 62 -25 5 -36 15 -44
35 -8 23 -21 33 -68 48 -32 11 -61 18 -64 14z"/>
<path d="M24184 16233 c-33 -31 -28 -57 13 -61 53 -5 89 71 38 80 -17 4 -33
-2 -51 -19z"/>
<path d="M24067 16133 c-34 -10 -51 -22 -62 -43 -9 -18 -26 -32 -43 -36 -55
-11 -72 -23 -72 -48 0 -14 5 -28 11 -31 22 -14 97 26 134 71 24 29 44 44 59
44 28 0 50 24 42 45 -6 17 -6 17 -69 -2z"/>
<path d="M23803 15941 c-23 -11 -52 -32 -65 -46 -13 -15 -42 -36 -65 -46 -32
-13 -43 -24 -43 -40 0 -20 3 -21 48 -14 56 8 92 29 92 53 0 24 19 42 45 42 27
0 59 34 52 55 -8 19 -13 19 -64 -4z"/>
<path d="M4330 15847 c0 -23 32 -44 88 -58 45 -11 55 -11 62 1 12 19 -6 49
-36 60 -39 15 -114 13 -114 -3z"/>
<path d="M4494 15756 c-8 -22 10 -43 52 -56 41 -14 74 -5 74 19 0 27 -24 43
-75 49 -35 4 -46 1 -51 -12z"/>
<path d="M23513 15755 c-58 -41 -4 -82 64 -48 54 26 53 57 -2 61 -25 2 -49 -3
-62 -13z"/>
<path d="M7082 2381 c-76 -4 -137 -12 -144 -19 -16 -16 10 -20 232 -33 266
-16 730 -15 925 1 l160 14 -180 18 c-203 19 -781 31 -993 19z"/>
<path d="M20160 2379 c-176 -11 -407 -36 -365 -39 17 -1 41 -4 55 -5 109 -13
537 -25 675 -20 212 8 387 23 398 34 5 5 -1 15 -14 22 -30 16 -534 22 -749 8z"/>
<path d="M8873 2290 c-155 -4 -226 -9 -235 -18 -6 -6 -10 -14 -7 -16 3 -3 56
-11 119 -17 199 -22 1540 -16 1518 7 -14 13 -374 36 -633 40 -170 2 -362 5
-425 7 -63 1 -215 0 -337 -3z"/>
<path d="M18315 2283 c-67 -3 -402 -29 -447 -35 -49 -6 241 -18 588 -24 387
-6 830 5 938 24 36 7 38 8 21 22 -15 13 -89 15 -519 16 -276 0 -537 -1 -581
-3z"/>
<path d="M11145 2193 c-77 -2 -150 -5 -163 -8 -21 -5 -22 -7 -7 -22 28 -28
583 -34 3110 -35 2451 0 3093 7 3185 36 l45 14 -70 2 c-38 1 -79 4 -90 7 -19
5 -5727 10 -6010 6z"/>
<path d="M11295 26694 ..." fill="red"/>
</g>
</svg>
